<svg width="144" height="144" viewBox="0 0 144 144" fill="none" xmlns="http://www.w3.org/2000/svg">
<g filter="url(#filter0_d_2468_1750)">
<circle cx="72" cy="68" r="48" fill="white"/>
</g>
<g clip-path="url(#clip0_2468_1750)">
<path d="M76.2392 43H56.9484C54.8409 43.0018 52.8203 43.8374 51.33 45.3236C49.8398 46.8097 49.0018 48.8247 49 50.9264V89.5953C48.9825 90.426 49.2758 91.2335 49.8226 91.8604C50.3694 92.4873 51.1306 92.8888 51.958 92.9866C52.413 93.0315 52.8724 92.9808 53.3065 92.8378C53.7407 92.6948 54.14 92.4627 54.4787 92.1564C54.8174 91.8502 55.088 91.4765 55.2731 91.0596C55.4581 90.6427 55.5536 90.1917 55.5532 89.7358V50.9398C55.5532 50.7571 55.5893 50.5762 55.6594 50.4074C55.7296 50.2386 55.8323 50.0852 55.9619 49.956C56.0914 49.8268 56.2452 49.7243 56.4145 49.6544C56.5837 49.5845 56.7652 49.5485 56.9484 49.5485H76.2392C77.1073 49.5485 77.9399 49.2046 78.5537 48.5924C79.1676 47.9803 79.5124 47.15 79.5124 46.2843V46.2843C79.515 45.8539 79.4324 45.4273 79.269 45.029C79.1057 44.6306 78.8651 44.2684 78.5608 43.9632C78.2566 43.6579 77.8949 43.4157 77.4965 43.2504C77.098 43.0851 76.6707 43 76.2392 43V43Z" fill="url(#paint0_linear_2468_1750)"/>
<path d="M95 59.7826V50.9264C95 48.8288 94.1663 46.8168 92.6815 45.331C91.1967 43.8453 89.1818 43.0071 87.0784 43H77.3861C76.5427 43.0381 75.7466 43.399 75.1633 44.0076C74.5799 44.6162 74.2544 45.4257 74.2544 46.2676C74.2544 47.1095 74.5799 47.9189 75.1633 48.5276C75.7466 49.1362 76.5427 49.4971 77.3861 49.5351H87.0784C87.2622 49.5342 87.4444 49.5696 87.6144 49.6391C87.7845 49.7086 87.939 49.811 88.0693 49.9402C88.1996 50.0695 88.3029 50.2232 88.3735 50.3924C88.444 50.5617 88.4803 50.7431 88.4803 50.9264V65.1873V85.1873C88.4803 85.5279 88.3446 85.8546 88.1031 86.0954C87.8616 86.3363 87.534 86.4716 87.1925 86.4716H63.4547C62.5865 86.4716 61.754 86.8155 61.1401 87.4276C60.5263 88.0398 60.1814 88.8701 60.1814 89.7358C60.1814 90.6015 60.5263 91.4318 61.1401 92.0439C61.754 92.6561 62.5865 93 63.4547 93H87.1656C89.2429 92.9982 91.2346 92.1745 92.7034 90.7097C94.1723 89.245 94.9982 87.2588 95 85.1873V59.7692V59.7826Z" fill="url(#paint1_linear_2468_1750)"/>
<path d="M81.1624 59.4548H64.6619C62.8542 59.4548 61.3887 60.9163 61.3887 62.719C61.3887 64.5218 62.8542 65.9833 64.6619 65.9833H81.1624C82.9701 65.9833 84.4356 64.5218 84.4356 62.719C84.4356 60.9163 82.9701 59.4548 81.1624 59.4548Z" fill="url(#paint2_linear_2468_1750)"/>
<path d="M75.9037 70.6722H64.3668C62.722 70.6722 61.3887 72.0019 61.3887 73.6421V74.2308C61.3887 75.871 62.722 77.2007 64.3668 77.2007H75.9037C77.5485 77.2007 78.8818 75.871 78.8818 74.2308V73.6421C78.8818 72.0019 77.5485 70.6722 75.9037 70.6722Z" fill="url(#paint3_linear_2468_1750)"/>
</g>
<defs>
<filter id="filter0_d_2468_1750" x="0" y="0" width="144" height="144" filterUnits="userSpaceOnUse" color-interpolation-filters="sRGB">
<feFlood flood-opacity="0" result="BackgroundImageFix"/>
<feColorMatrix in="SourceAlpha" type="matrix" values="0 0 0 0 0 0 0 0 0 0 0 0 0 0 0 0 0 0 127 0" result="hardAlpha"/>
<feOffset dy="4"/>
<feGaussianBlur stdDeviation="12"/>
<feColorMatrix type="matrix" values="0 0 0 0 0 0 0 0 0 0 0 0 0 0 0 0 0 0 0.05 0"/>
<feBlend mode="normal" in2="BackgroundImageFix" result="effect1_dropShadow_2468_1750"/>
<feBlend mode="normal" in="SourceGraphic" in2="effect1_dropShadow_2468_1750" result="shape"/>
</filter>
<linearGradient id="paint0_linear_2468_1750" x1="32.9087" y1="68.0033" x2="68.9682" y2="68.0033" gradientUnits="userSpaceOnUse">
<stop stop-color="#6972FF"/>
<stop offset="1" stop-color="#4D59FF"/>
</linearGradient>
<linearGradient id="paint1_linear_2468_1750" x1="78.627" y1="33.6957" x2="77.393" y2="98.164" gradientUnits="userSpaceOnUse">
<stop stop-color="#41D394"/>
<stop offset="1" stop-color="#32A674"/>
</linearGradient>
<linearGradient id="paint2_linear_2468_1750" x1="-991.857" y1="251.913" x2="3253.16" y2="251.913" gradientUnits="userSpaceOnUse">
<stop stop-color="#41D394"/>
<stop offset="1" stop-color="#32A674"/>
</linearGradient>
<linearGradient id="paint3_linear_2468_1750" x1="-738.048" y1="372.612" x2="2484.01" y2="372.612" gradientUnits="userSpaceOnUse">
<stop stop-color="#41D394"/>
<stop offset="1" stop-color="#32A674"/>
</linearGradient>
<clipPath id="clip0_2468_1750">
<rect width="46" height="50" fill="white" transform="translate(49 43)"/>
</clipPath>
</defs>
</svg>
