<svg width="26" height="24" viewBox="0 0 26 24" fill="none" xmlns="http://www.w3.org/2000/svg">
<path fill-rule="evenodd" clip-rule="evenodd" d="M17.9863 0.956055C18.6767 0.956055 19.2363 1.5157 19.2363 2.20605V6.72867C19.2363 7.41902 18.6767 7.97867 17.9863 7.97867C17.296 7.97867 16.7363 7.41902 16.7363 6.72867V5.68726H9.65723V6.72867C9.65723 7.41902 9.09758 7.97867 8.40723 7.97867C7.71687 7.97867 7.15723 7.41902 7.15723 6.72867V5.68726H3.86603C3.46214 5.68726 3.25 5.94779 3.25 6.2463V20.8393C3.25 21.1378 3.46214 21.3983 3.86603 21.3983H22.5263C22.9302 21.3983 23.1423 21.1378 23.1423 20.8393V6.2463C23.1423 5.94779 22.9302 5.68726 22.5263 5.68726H21.4689C20.7785 5.68726 20.2189 5.12761 20.2189 4.43726C20.2189 3.7469 20.7785 3.18726 21.4689 3.18726H22.5263C24.2373 3.18726 25.6423 4.49456 25.6423 6.2463V20.8393C25.6423 22.591 24.2373 23.8983 22.5263 23.8983H3.86603C2.15508 23.8983 0.75 22.591 0.75 20.8393V6.2463C0.75 4.49456 2.15508 3.18726 3.86603 3.18726H7.15723V2.20605C7.15723 1.5157 7.71687 0.956055 8.40723 0.956055C9.09758 0.956055 9.65723 1.5157 9.65723 2.20605V3.18726H16.7363V2.20605C16.7363 1.5157 17.296 0.956055 17.9863 0.956055ZM9.66634 12.1667C9.66634 12.811 9.14401 13.3333 8.49967 13.3333C7.85534 13.3333 7.33301 12.811 7.33301 12.1667C7.33301 11.5223 7.85534 11 8.49967 11C9.14401 11 9.66634 11.5223 9.66634 12.1667ZM13.1667 13.3333C13.811 13.3333 14.3333 12.811 14.3333 12.1667C14.3333 11.5223 13.811 11 13.1667 11C12.5223 11 12 11.5223 12 12.1667C12 12.811 12.5223 13.3333 13.1667 13.3333ZM19 12.1667C19 12.811 18.4777 13.3333 17.8333 13.3333C17.189 13.3333 16.6667 12.811 16.6667 12.1667C16.6667 11.5223 17.189 11 17.8333 11C18.4777 11 19 11.5223 19 12.1667ZM8.49967 18C9.14401 18 9.66634 17.4777 9.66634 16.8333C9.66634 16.189 9.14401 15.6667 8.49967 15.6667C7.85534 15.6667 7.33301 16.189 7.33301 16.8333C7.33301 17.4777 7.85534 18 8.49967 18ZM14.3333 16.8334C14.3333 17.4777 13.811 18 13.1667 18C12.5223 18 12 17.4777 12 16.8334C12 16.189 12.5223 15.6667 13.1667 15.6667C13.811 15.6667 14.3333 16.189 14.3333 16.8334ZM17.8333 18C18.4777 18 19 17.4777 19 16.8334C19 16.189 18.4777 15.6667 17.8333 15.6667C17.189 15.6667 16.6667 16.189 16.6667 16.8334C16.6667 17.4777 17.189 18 17.8333 18Z" fill="#61C194"/>
</svg>
