<svg width="144" height="144" viewBox="0 0 144 144" fill="none" xmlns="http://www.w3.org/2000/svg">
<g filter="url(#filter0_d_2460_3605)">
<circle cx="72" cy="68" r="48" fill="white"/>
</g>
<g clip-path="url(#clip0_2460_3605)">
<path d="M92.1503 45H82.5903C81.7328 45.0018 80.9109 45.3474 80.3045 45.9614C79.6982 46.5753 79.3567 47.4074 79.355 48.2757V48.2757C79.355 49.1444 79.6958 49.9776 80.3026 50.5919C80.9093 51.2062 81.7322 51.5513 82.5903 51.5513H92.1503C92.5172 51.5531 92.8687 51.7015 93.1282 51.9642C93.3876 52.2269 93.5342 52.5827 93.5359 52.9542V67.2651C93.5185 68.0976 93.8074 68.9071 94.3465 69.536C94.8856 70.1649 95.6364 70.5685 96.453 70.6682C96.9027 70.7133 97.3567 70.6624 97.7858 70.5189C98.2149 70.3754 98.6096 70.1425 98.9444 69.8351C99.2791 69.5278 99.5466 69.1529 99.7296 68.7345C99.9125 68.3161 100.007 67.8636 100.007 67.406V52.9542C100.005 50.8452 99.1765 48.823 97.7035 47.3317C96.2306 45.8404 94.2334 45.0018 92.1503 45V45Z" fill="#5DB180"/>
<path d="M96.7712 70.6816C96.3461 70.6825 95.925 70.5984 95.5321 70.4341C95.1391 70.2697 94.7822 70.0285 94.4816 69.7242C94.181 69.4198 93.9427 69.0584 93.7804 68.6605C93.6181 68.2627 93.535 67.8364 93.5359 67.406V62.6401C93.5342 62.2995 93.3993 61.9734 93.1607 61.7332C92.9222 61.4929 92.5994 61.3581 92.263 61.3581H72.3341C71.5005 61.3199 70.7136 60.9577 70.137 60.347C69.5605 59.7362 69.2388 58.9239 69.2388 58.079C69.2388 57.2342 69.5605 56.4219 70.137 55.8112C70.7136 55.2004 71.5005 54.8382 72.3341 54.8H92.263C94.3161 54.8018 96.2847 55.6284 97.7365 57.0983C99.1883 58.5682 100.005 60.5614 100.007 62.6401V67.406C100.007 68.2747 99.6656 69.1079 99.0589 69.7222C98.4522 70.3365 97.6293 70.6816 96.7712 70.6816V70.6816Z" fill="#5DB180"/>
<path d="M63.245 90.0133H52.7435C50.6903 90.0116 48.7218 89.185 47.27 87.7151C45.8182 86.2452 45.0018 84.252 45 82.1733V62.6401C45.0018 60.5614 45.8182 58.5682 47.27 57.0983C48.7218 55.6284 50.6903 54.8018 52.7435 54.8H61.6737C62.5073 54.8382 63.2942 55.2004 63.8708 55.8112C64.4473 56.4219 64.769 57.2342 64.769 58.079C64.769 58.9239 64.4473 59.7362 63.8708 60.347C63.2942 60.9577 62.5073 61.3199 61.6737 61.3581H52.7435C52.4082 61.3598 52.0871 61.4955 51.85 61.7355C51.6129 61.9756 51.479 62.3007 51.4772 62.6401V82.1598C51.4772 82.5005 51.6104 82.8273 51.8477 83.0688C52.085 83.3103 52.407 83.4468 52.7435 83.4486H63.245C63.6698 83.4486 64.0905 83.5333 64.483 83.6979C64.8756 83.8626 65.2322 84.1039 65.5327 84.408C65.8331 84.7122 66.0714 85.0733 66.234 85.4707C66.3966 85.8682 66.4802 86.2941 66.4802 86.7243C66.4802 87.1544 66.3966 87.5804 66.234 87.9778C66.0714 88.3752 65.8331 88.7363 65.5327 89.0405C65.2322 89.3447 64.8756 89.586 64.483 89.7506C64.0905 89.9152 63.6698 89.9999 63.245 89.9999V90.0133Z" fill="url(#paint0_linear_2460_3605)"/>
<path d="M81.6224 77.562C84.3905 77.562 86.6345 75.29 86.6345 72.4874C86.6345 69.6848 84.3905 67.4128 81.6224 67.4128C78.8543 67.4128 76.6104 69.6848 76.6104 72.4874C76.6104 75.29 78.8543 77.562 81.6224 77.562Z" fill="#5DB180"/>
<path d="M71.9233 45H52.8364C50.7534 45.0018 48.7561 45.8404 47.2832 47.3317C45.8103 48.823 44.982 50.8452 44.9802 52.9542V62.4925C44.9628 63.3251 45.2517 64.1345 45.7908 64.7635C46.3299 65.3924 47.0807 65.796 47.8973 65.8957C48.3475 65.9417 48.8023 65.8916 49.2322 65.7486C49.6621 65.6055 50.0576 65.3728 50.3931 65.0653C50.7286 64.7579 50.9967 64.3826 51.18 63.9637C51.3634 63.5448 51.4579 63.0917 51.4574 62.6335V52.9542C51.4574 52.5833 51.6025 52.2275 51.8609 51.9646C52.1194 51.7017 52.4701 51.5531 52.8364 51.5513H71.9034C72.3286 51.5522 72.7496 51.4681 73.1425 51.3038C73.5355 51.1395 73.8925 50.8982 74.1931 50.5939C74.4937 50.2895 74.732 49.9281 74.8943 49.5302C75.0565 49.1324 75.1396 48.7061 75.1387 48.2757V48.2757C75.1388 47.4104 74.8006 46.5802 74.1982 45.9665C73.5957 45.3528 72.7779 45.0053 71.9233 45Z" fill="url(#paint1_linear_2460_3605)"/>
<path d="M92.2631 90.0135H63.5234C62.6653 90.0135 61.8424 89.6684 61.2357 89.0541C60.6289 88.4398 60.2881 87.6066 60.2881 86.7378C60.2881 85.8691 60.6289 85.0359 61.2357 84.4216C61.8424 83.8073 62.6653 83.4622 63.5234 83.4622H92.2631C92.6002 83.4604 92.923 83.3241 93.1613 83.0828C93.3997 82.8415 93.5343 82.5147 93.5361 82.1734V76.8035C93.5361 75.9347 93.8769 75.1016 94.4837 74.4873C95.0904 73.8729 95.9133 73.5278 96.7714 73.5278C97.6294 73.5278 98.4523 73.8729 99.0591 74.4873C99.6658 75.1016 100.007 75.9347 100.007 76.8035V82.1734C100.005 84.2522 99.1885 86.2453 97.7367 87.7152C96.2849 89.1851 94.3163 90.0117 92.2631 90.0135V90.0135Z" fill="#5DB180"/>
</g>
<defs>
<filter id="filter0_d_2460_3605" x="0" y="0" width="144" height="144" filterUnits="userSpaceOnUse" color-interpolation-filters="sRGB">
<feFlood flood-opacity="0" result="BackgroundImageFix"/>
<feColorMatrix in="SourceAlpha" type="matrix" values="0 0 0 0 0 0 0 0 0 0 0 0 0 0 0 0 0 0 127 0" result="hardAlpha"/>
<feOffset dy="4"/>
<feGaussianBlur stdDeviation="12"/>
<feColorMatrix type="matrix" values="0 0 0 0 0 0 0 0 0 0 0 0 0 0 0 0 0 0 0.05 0"/>
<feBlend mode="normal" in2="BackgroundImageFix" result="effect1_dropShadow_2460_3605"/>
<feBlend mode="normal" in="SourceGraphic" in2="effect1_dropShadow_2460_3605" result="shape"/>
</filter>
<linearGradient id="paint0_linear_2460_3605" x1="45" y1="72.4" x2="66.4802" y2="72.4" gradientUnits="userSpaceOnUse">
<stop stop-color="#6972FF"/>
<stop offset="1" stop-color="#4D59FF"/>
</linearGradient>
<linearGradient id="paint1_linear_2460_3605" x1="24871.5" y1="9612.79" x2="26243.4" y2="9612.79" gradientUnits="userSpaceOnUse">
<stop stop-color="#6972FF"/>
<stop offset="1" stop-color="#4D59FF"/>
</linearGradient>
<clipPath id="clip0_2460_3605">
<rect width="55" height="45" fill="white" transform="translate(45 45)"/>
</clipPath>
</defs>
</svg>
