<svg id="Layer_1" data-name="Layer 1" xmlns="http://www.w3.org/2000/svg" viewBox="0 0 1832.45 464.68"><defs><style>.cls-1{fill:#00b14f;}</style></defs><path class="cls-1" d="M1712.75,595.29l-1.36.9v51.43a152.11,152.11,0,0,0,85.73,25.72c72.63,0,117.74-37.9,118.2-118.65l.9-238.66h-51.88v135.8c0,45.57-23.46,67.22-61.81,67.22-34.29,0-58.2-16.24-58.2-62.26V316h-51.88V462.65c0,69.93,38.79,107.83,102.86,107.83,29.32,0,55.94-13.54,69-37.9h2.24l.46,18.5c.9,46-21.2,70.83-70.83,70.83-33.83,0-60.9-12.18-83.46-26.62M1600.87,444.16v0Zm-75.79,77.6c-42,.44-73.54-31.59-73.54-83.92,0-47.82,32-80.75,74-80.75s75.8,27.07,75.35,81.65v5.87c-1.81,46.92-33.39,76.69-75.79,77.15m2.26-214.29c-74.45,0-128.14,53.67-128.14,133.08s53.69,131.28,123.17,130.38c35.19-.45,67.22-22.11,77.6-47.38h2.25v41.52h49.18l1.34-127.68c.91-84.36-53.23-129.92-125.4-129.92M1261.62,414.83h-55.95V289h49.63c48.27,0,72.18,25.26,72.18,64.51,0,41-22.56,61.35-65.86,61.35m0-174.59H1153.34V565.07h52.33V463.56h50.08c79.85,0,125-41.51,125-116.85,0-62.25-49.17-106.47-119.09-106.47" transform="translate(-83.78 -208.66)"/><path class="cls-1" d="M125.63,400.37C125.63,473.73,181,530,252.54,530c68.85,0,103.5-44.55,103.5-93.61V418.83H255.69v27h72.9c.46,26.55-23.85,57.6-76,57.6-57.61,0-97.66-42.76-97.66-103.06,0-58.05,43.2-101.7,102.61-101.7,38.7,0,69.3,9.45,97.66,29.25l1.8-1.35v-25.2c-21.16-14.85-57.16-29.25-100.36-29.25-73.36,0-131,56.7-131,128.25m-41.85,0c0,97.21,72,169.67,168.76,169.67,88.2,0,142.21-55.36,142.21-144.91V379.22H255.69v26.1H369.55v24.31c0,70.2-43.66,113.85-117,113.85-80.56,0-140.41-61.65-140.41-143.11,0-79.2,63-141.75,144.46-141.75,38.7,0,73.8,9.45,100.36,27.9V260c-25.66-18.44-59.41-27.9-100.36-27.9-97.66,0-172.81,74.26-172.81,168.31M451.9,423.32V562.38h26.55V423.78c0-31,20.25-53.11,50.4-53.11,9,0,17.11,2.25,25.66,5.85a131.75,131.75,0,0,1,11.7-22.5c-9.45-6.3-23.4-10.35-36.9-10.35-45.46,0-77.41,32.85-77.41,79.65M412.75,562.38H439.3V423.32c0-54.9,36.9-92.25,90.46-92.25,18,0,36.45,5.85,44.55,10.8,5-5.85,10.35-12.15,17.55-18-16.65-11.7-39.15-18.45-63.45-18.45-70.66,0-115.66,47.7-115.66,118.36ZM829,406.68v39.15c15.76-21.16,29.26-39.6,41.86-54.91,32-39.15,59.85-60.75,103-60.75,58.5,0,101.26,44.1,101.26,106.2,0,60.76-41.85,107.11-99.46,107.11-46.8,0-87.3-32-96.75-75.61l-18.9,25.66C874.93,536.28,918.58,570,975.29,570c72.9,0,126.45-58.51,126.45-133.67,0-76.05-54-133.2-127.81-133.2-76.5,0-111.6,57.15-144.91,103.51m82.36,19.8h-.9l-20.7,28.34c3.6,32.41,36.45,75.61,86,75.61,50.41,0,86.86-40.95,86.86-94.5s-37.35-93.16-88.66-93.16c-49.95,0-78.75,36.45-99,63.46-9.9,13-27,34.2-45.91,60.75v43.2c17.56-26.1,41.41-56.71,59-77.85,29.7-35.56,47.7-62.56,85.51-62.56,36.9,0,62.1,28.35,62.1,66.16,0,39.14-23.85,67.95-59.86,67.95-37.8,0-64.35-34.65-64.35-73.36ZM884.83,208.66V320.72c8.1-6.3,17.1-14,26.55-17.55V208.66Zm-39.6,153c8.1-10.35,17.1-21.6,26.55-31.05v-122H845.23Zm-108,128.26-.45-.45c-11.25,9-29.7,14.4-47.26,14.4-36,0-63-27-63-67.05,0-38.26,26.55-67.51,62.11-67.51,38.25,0,61.65,27.91,61.65,65.26v127.8h26.55V433.23c0-52.2-36.45-90.46-87.75-90.46-50.86,0-90,38.26-90,94.06,0,55.35,38.7,94.95,90,93.6,19.35-.45,39.15-7.65,48.15-13.94ZM559,436.37C559,514.68,614.36,570,689.07,570c16.65,0,36-5,48.15-14.4V529.08c-8.1,6.75-27.9,14.4-48.15,14.4-61.21,0-102.61-43.2-102.61-107.11,0-60.75,44.1-106.2,102.61-106.2,58,0,100.35,42.75,100.35,102.6V562.38h27v-130c0-74.71-52.65-129.61-127.35-129.61-73.36,0-130.06,58-130.06,133.65" transform="translate(-83.78 -208.66)"/></svg>