<svg width="44" height="44" viewBox="0 0 44 44" fill="none" xmlns="http://www.w3.org/2000/svg">
<circle cx="22" cy="22" r="22" fill="#37B47E"/>
<path d="M12.2266 18.7693H13.1464C14.0663 18.7693 14.0663 17.8462 14.0663 17.8462V12.6924C14.1046 12.1924 14.5262 11.7693 15.0245 11.7693H28.9757C29.4739 11.7693 29.8955 12.1924 29.8955 12.6924V17.8462C29.8955 17.8462 29.8955 18.7693 30.8154 18.7693H31.7353" stroke="white" stroke-width="1.5" stroke-miterlimit="10" stroke-linecap="round" stroke-linejoin="round"/>
<path d="M12.2266 26.2307H13.1464C14.0663 26.2307 14.0663 27.1538 14.0663 27.1538V32.3076C14.0663 32.8076 14.4879 33.2307 14.9861 33.2307H28.9374C29.4356 33.2307 29.8572 32.8076 29.8572 32.3076V27.1923C29.8572 27.1923 29.8572 26.2692 30.7771 26.2692H31.6969" stroke="white" stroke-width="1.5" stroke-miterlimit="10" stroke-linecap="round" stroke-linejoin="round"/>
<path d="M16.5195 29.5H27.4812" stroke="white" stroke-width="1.5" stroke-miterlimit="10" stroke-linecap="round" stroke-linejoin="round"/>
<path d="M16.5195 15.9617H27.4812" stroke="white" stroke-width="1.5" stroke-miterlimit="10" stroke-linecap="round" stroke-linejoin="round"/>
<path d="M18.2822 13.9617H22.8432" stroke="white" stroke-width="1.5" stroke-miterlimit="10" stroke-linecap="round" stroke-linejoin="round"/>
<path d="M24.7979 13.9617H25.7177" stroke="white" stroke-width="1.5" stroke-miterlimit="10" stroke-linecap="round" stroke-linejoin="round"/>
<path d="M21.54 31.3848H22.4599" stroke="white" stroke-width="1.5" stroke-miterlimit="10" stroke-linecap="round" stroke-linejoin="round"/>
<path d="M22.9969 24.5001V21.5386C22.9969 21.154 22.6903 20.8848 22.3453 20.8848H21.0422C20.6589 20.8848 20.3906 21.1925 20.3906 21.5386V24.5001" stroke="white" stroke-width="1.5" stroke-miterlimit="10" stroke-linecap="round" stroke-linejoin="round"/>
<path d="M20.3525 23.1924H22.9971" stroke="white" stroke-width="1.5" stroke-miterlimit="10" stroke-linecap="round" stroke-linejoin="round"/>
<path d="M16.0215 24.5V20.8462H18.0145C18.0145 20.8462 18.3595 20.8462 18.3595 21.1923C18.3595 21.5385 18.3595 22.5 18.3595 22.5C18.3595 22.5 18.3595 22.8462 18.0145 22.8462C17.6696 22.8462 16.0215 22.8462 16.0215 22.8462" stroke="white" stroke-width="1.5" stroke-miterlimit="10" stroke-linecap="round" stroke-linejoin="round"/>
<path d="M24.9902 20.5386V22.1924C24.9902 22.577 25.2969 22.8463 25.6418 22.8463H26.9449C27.3282 22.8463 27.5965 22.5386 27.5965 22.1924V20.5386" stroke="white" stroke-width="1.5" stroke-miterlimit="10" stroke-linecap="round" stroke-linejoin="round"/>
<path d="M26.3311 23.1924V24.5001" stroke="white" stroke-width="1.5" stroke-miterlimit="10" stroke-linecap="round" stroke-linejoin="round"/>
<path d="M11.7666 22.5H13.6447" stroke="white" stroke-width="1.5" stroke-miterlimit="10" stroke-linecap="round" stroke-linejoin="round"/>
<path d="M30.3936 22.5H32.2333" stroke="white" stroke-width="1.5" stroke-miterlimit="10" stroke-linecap="round" stroke-linejoin="round"/>
</svg>
