<svg width="44" height="44" viewBox="0 0 44 44" fill="none" xmlns="http://www.w3.org/2000/svg">
<circle cx="22" cy="22" r="22" fill="#37B47E"/>
<path d="M31.0762 20.8379L33.7707 23.5105L31.0762 26.183" stroke="white" stroke-width="1.5" stroke-miterlimit="10" stroke-linecap="round" stroke-linejoin="round"/>
<path d="M24.0217 20.8379L21.3271 23.5105L24.0217 26.183" stroke="white" stroke-width="1.5" stroke-miterlimit="10" stroke-linecap="round" stroke-linejoin="round"/>
<path d="M28.4996 19.7534L26.3994 27.4612" stroke="white" stroke-width="1.5" stroke-miterlimit="10" stroke-linecap="round" stroke-linejoin="round"/>
<path d="M32.6992 29.8627C32.6992 30.405 32.2633 30.831 31.7085 30.831H11.2221C10.6673 30.831 10.2314 30.405 10.2314 29.8627V27.5" stroke="white" stroke-width="1.5" stroke-miterlimit="10" stroke-linecap="round" stroke-linejoin="round"/>
<path d="M29.291 13.1689H31.7478C32.3026 13.1689 32.7384 13.595 32.7384 14.1373V18.3204" stroke="white" stroke-width="1.5" stroke-miterlimit="10" stroke-linecap="round" stroke-linejoin="round"/>
<path d="M25.8439 17.4683V13.6337C25.8439 13.3626 25.6062 13.1689 25.3684 13.1689H10.707C10.4692 13.1689 10.2314 13.4013 10.2314 13.6337V24.1303C10.2314 24.4014 10.4692 24.5951 10.707 24.5951H18.0377" stroke="white" stroke-width="1.5" stroke-miterlimit="10" stroke-linecap="round" stroke-linejoin="round"/>
<path d="M10.2314 16.5H25.8439" stroke="white" stroke-width="1.5" stroke-miterlimit="10" stroke-linecap="round" stroke-linejoin="round"/>
<path d="M13.9966 21.3413C14.4343 21.3413 14.7891 20.9945 14.7891 20.5666C14.7891 20.1388 14.4343 19.792 13.9966 19.792C13.5589 19.792 13.2041 20.1388 13.2041 20.5666C13.2041 20.9945 13.5589 21.3413 13.9966 21.3413Z" fill="white"/>
<path d="M16.4527 21.3413C16.8904 21.3413 17.2452 20.9945 17.2452 20.5666C17.2452 20.1388 16.8904 19.792 16.4527 19.792C16.015 19.792 15.6602 20.1388 15.6602 20.5666C15.6602 20.9945 16.015 21.3413 16.4527 21.3413Z" fill="white"/>
</svg>
