<svg width="144" height="144" viewBox="0 0 144 144" fill="none" xmlns="http://www.w3.org/2000/svg">
<g filter="url(#filter0_d_2468_1751)">
<circle cx="72" cy="68" r="48" fill="white"/>
</g>
<g clip-path="url(#clip0_2468_1751)">
<path d="M46.7103 56.7834L50.814 58.8687C52.3522 59.6503 54.2269 59.0252 55.0013 57.4724C55.7756 55.9196 55.1563 54.0272 53.6181 53.2456L49.5144 51.1603C47.9762 50.3787 46.1015 51.0038 45.3271 52.5566C44.5528 54.1094 45.1721 56.0018 46.7103 56.7834Z" fill="url(#paint0_linear_2468_1751)"/>
<path d="M94.4836 51.1575L90.38 53.2427C88.8417 54.0244 88.2224 55.9168 88.9968 57.4696C89.7711 59.0224 91.6458 59.6475 93.184 58.8659L97.2877 56.7806C98.8259 55.999 99.4452 54.1065 98.6709 52.5538C97.8965 51.001 96.0218 50.3758 94.4836 51.1575Z" fill="url(#paint1_linear_2468_1751)"/>
<path d="M69.1853 41.1477V45.7854C69.1853 47.5238 70.5814 48.9331 72.3035 48.9331C74.0257 48.9331 75.4217 47.5238 75.4217 45.7854V41.1477C75.4217 39.4093 74.0257 38 72.3035 38C70.5814 38 69.1853 39.4093 69.1853 41.1477Z" fill="url(#paint2_linear_2468_1751)"/>
<path d="M74.6038 90.7046H70.0096C68.2874 90.7046 66.8914 92.1139 66.8914 93.8523C66.8914 95.5907 68.2874 97 70.0096 97H74.6038C76.326 97 77.722 95.5907 77.722 93.8523C77.722 92.1139 76.326 90.7046 74.6038 90.7046Z" fill="url(#paint3_linear_2468_1751)"/>
<path d="M80.2971 83.4611V83.4546C80.2971 81.6378 78.8381 80.165 77.0383 80.165H67.3323C65.5325 80.165 64.0735 81.6378 64.0735 83.4546V83.4611C64.0735 85.2779 65.5325 86.7507 67.3323 86.7507H77.0383C78.8381 86.7507 80.2971 85.2779 80.2971 83.4611Z" fill="url(#paint4_linear_2468_1751)"/>
<path d="M88.5463 65.4069C87.4509 61.1651 84.777 57.5131 81.0814 55.2111C77.3859 52.9091 72.9532 52.1344 68.7061 53.0483C68.4387 53.0485 68.1724 53.0832 67.9137 53.1515C65.3837 53.8252 63.0435 55.0832 61.0778 56.8264C59.112 58.5696 57.5746 60.7502 56.5868 63.1961C55.5991 65.6419 55.188 68.286 55.3861 70.9197C55.5842 73.5534 56.3861 76.1046 57.7284 78.3718C58.1834 79.1057 58.9086 79.627 59.7445 79.8212C60.5803 80.0153 61.4583 79.8664 62.1853 79.4071C62.9123 78.9477 63.4288 78.2157 63.6211 77.372C63.8135 76.5282 63.6659 75.6419 63.2109 74.908C62.9186 74.4279 62.6684 73.9228 62.4633 73.3987C62.4596 73.3795 62.4596 73.3598 62.4633 73.3406C62.3738 73.1278 62.2971 72.9149 62.2268 72.6956C62.2268 72.6118 62.1757 72.5279 62.1566 72.4441C62.1374 72.3602 62.0991 72.2376 62.0671 72.1409C62.0352 72.0441 61.9968 71.8442 61.9648 71.6958C61.9648 71.6958 61.9648 71.6507 61.9648 71.6249C61.8621 71.1102 61.798 70.5884 61.7732 70.0639C61.7732 70.0123 61.7732 69.9543 61.7732 69.9027V69.5221C61.7732 69.406 61.7732 69.2964 61.7732 69.1802C61.7732 69.0641 61.7732 68.9997 61.7732 68.9094C61.7732 68.819 61.7732 68.5546 61.8307 68.374C61.8307 68.3353 61.8307 68.303 61.8307 68.2643C61.8307 68.0386 61.9074 67.8128 61.9521 67.6193C61.9521 67.5548 61.984 67.4967 61.9968 67.4387C62.0096 67.3806 62.0607 67.1549 62.099 67.0194C62.1374 66.884 62.1949 66.6969 62.2524 66.5357C62.3163 66.3551 62.3866 66.168 62.4633 65.9874C62.787 65.2108 63.1919 64.4713 63.6709 63.7814C63.9923 63.3218 64.3514 62.8902 64.7444 62.4914C66.5225 60.678 68.8874 59.5708 71.4073 59.3719C73.9272 59.1729 76.4339 59.8955 78.4697 61.4078C80.3288 62.8306 81.6555 64.8474 82.2332 67.1291C82.4241 67.8342 82.8413 68.4554 83.4195 68.8955C83.9976 69.3355 84.7041 69.5695 85.4281 69.5608V69.5608C85.9282 69.5607 86.4215 69.4437 86.8693 69.219C87.3171 68.9943 87.7072 68.668 88.0092 68.2656C88.3113 67.8633 88.517 67.3958 88.6101 66.8999C88.7033 66.4039 88.6815 65.8929 88.5463 65.4069V65.4069Z" fill="url(#paint5_linear_2468_1751)"/>
<path d="M74.7764 59.5179C76.3813 59.9457 77.8637 60.7491 79.1038 61.863C80.3438 62.9769 81.3064 64.37 81.9137 65.9294C82.5041 67.3782 82.7447 68.9478 82.6158 70.509C82.487 72.0701 81.9922 73.5779 81.1725 74.9081C80.7987 75.5162 80.632 76.231 80.6977 76.9436C80.7635 77.6562 81.0581 78.3276 81.5367 78.8556V78.8556C81.87 79.2307 82.2858 79.5218 82.7506 79.7054C83.2154 79.8891 83.7164 79.9603 84.2134 79.9132C84.7103 79.8662 85.1895 79.7023 85.6124 79.4346C86.0353 79.1669 86.3902 78.8029 86.6486 78.3718C87.9909 76.1046 88.7927 73.5535 88.9909 70.9198C89.189 68.2861 88.778 65.6419 87.7902 63.1961C86.8024 60.7503 85.265 58.5697 83.2993 56.8265C81.3335 55.0833 78.9932 53.8252 76.4633 53.1515C75.9857 53.0252 75.4858 53.0112 75.002 53.1106C74.5182 53.21 74.0634 53.4201 73.6727 53.7248C73.282 54.0294 72.9657 54.4206 72.7483 54.868C72.5309 55.3155 72.4181 55.8073 72.4186 56.3057V56.4927C72.4224 57.1898 72.6563 57.8658 73.0833 58.4136C73.5103 58.9615 74.1061 59.3501 74.7764 59.5179V59.5179Z" fill="url(#paint6_linear_2468_1751)"/>
</g>
<defs>
<filter id="filter0_d_2468_1751" x="0" y="0" width="144" height="144" filterUnits="userSpaceOnUse" color-interpolation-filters="sRGB">
<feFlood flood-opacity="0" result="BackgroundImageFix"/>
<feColorMatrix in="SourceAlpha" type="matrix" values="0 0 0 0 0 0 0 0 0 0 0 0 0 0 0 0 0 0 127 0" result="hardAlpha"/>
<feOffset dy="4"/>
<feGaussianBlur stdDeviation="12"/>
<feColorMatrix type="matrix" values="0 0 0 0 0 0 0 0 0 0 0 0 0 0 0 0 0 0 0.05 0"/>
<feBlend mode="normal" in2="BackgroundImageFix" result="effect1_dropShadow_2468_1751"/>
<feBlend mode="normal" in="SourceGraphic" in2="effect1_dropShadow_2468_1751" result="shape"/>
</filter>
<linearGradient id="paint0_linear_2468_1751" x1="78.7985" y1="69.5577" x2="10.2333" y2="35.3663" gradientUnits="userSpaceOnUse">
<stop stop-color="#41D394"/>
<stop offset="1" stop-color="#32A674"/>
</linearGradient>
<linearGradient id="paint1_linear_2468_1751" x1="9060.4" y1="-6226.38" x2="10222.5" y2="-6805.87" gradientUnits="userSpaceOnUse">
<stop stop-color="#41D394"/>
<stop offset="1" stop-color="#32A674"/>
</linearGradient>
<linearGradient id="paint2_linear_2468_1751" x1="1624.47" y1="-10175.4" x2="1624.47" y2="-11483.8" gradientUnits="userSpaceOnUse">
<stop stop-color="#41D394"/>
<stop offset="1" stop-color="#32A674"/>
</linearGradient>
<linearGradient id="paint3_linear_2468_1751" x1="9148.23" y1="1776.01" x2="10444.4" y2="1776.01" gradientUnits="userSpaceOnUse">
<stop stop-color="#41D394"/>
<stop offset="1" stop-color="#32A674"/>
</linearGradient>
<linearGradient id="paint4_linear_2468_1751" x1="54.9169" y1="83.461" x2="86.8722" y2="83.461" gradientUnits="userSpaceOnUse">
<stop stop-color="#6972FF"/>
<stop offset="1" stop-color="#4D59FF"/>
</linearGradient>
<linearGradient id="paint5_linear_2468_1751" x1="32732" y1="6964.81" x2="34469.8" y2="6964.81" gradientUnits="userSpaceOnUse">
<stop stop-color="#6972FF"/>
<stop offset="1" stop-color="#4D59FF"/>
</linearGradient>
<linearGradient id="paint6_linear_2468_1751" x1="16812.2" y1="6884.34" x2="17244.5" y2="6884.34" gradientUnits="userSpaceOnUse">
<stop stop-color="#41D394"/>
<stop offset="1" stop-color="#32A674"/>
</linearGradient>
<clipPath id="clip0_2468_1751">
<rect width="54" height="59" fill="white" transform="translate(45 38)"/>
</clipPath>
</defs>
</svg>
