<svg id="Layer_1" data-name="Layer 1" xmlns="http://www.w3.org/2000/svg" viewBox="0 0 44.23 27.33"><defs><style>.cls-1{fill:#ff5f00;}.cls-2{fill:#eb001b;}.cls-3{fill:#f79e1b;}</style></defs><path class="cls-1" d="M28.16,3.76h-12V25.24h12Z" transform="translate(-0.06 -0.83)"/><path class="cls-2" d="M17,14.5a13.68,13.68,0,0,1,5.2-10.74,13.66,13.66,0,1,0-8.43,24.41,13.55,13.55,0,0,0,8.43-2.93A13.68,13.68,0,0,1,17,14.5Z" transform="translate(-0.06 -0.83)"/><path class="cls-3" d="M44.29,14.5A13.66,13.66,0,0,1,30.62,28.17a13.53,13.53,0,0,1-8.42-2.93,13.69,13.69,0,0,0,0-21.48A13.53,13.53,0,0,1,30.62.83,13.66,13.66,0,0,1,44.29,14.5Z" transform="translate(-0.06 -0.83)"/><path class="cls-3" d="M43,23v-.46h.19v-.08h-.46v.08h.19V23Zm.87,0v-.54h-.15l-.15.38-.15-.38h-.16V23h.12v-.42l.15.34h.11l.16-.34V23Z" transform="translate(-0.06 -0.83)"/></svg>