<svg id="Layer_1" data-name="Layer 1" xmlns="http://www.w3.org/2000/svg" xmlns:xlink="http://www.w3.org/1999/xlink" viewBox="0 0 256 82.67"><defs><style>.cls-1{fill:url(#linear-gradient);}</style><linearGradient id="linear-gradient" x1="-827.3" y1="588.04" x2="-827.21" y2="587.02" gradientTransform="translate(211905 -48528.57) scale(256 82.67)" gradientUnits="userSpaceOnUse"><stop offset="0" stop-color="#222357"/><stop offset="1" stop-color="#254aa5"/></linearGradient></defs><path class="cls-1" d="M132.4,26.43c-.15,11.51,10.26,17.94,18.1,21.76,8.06,3.92,10.76,6.44,10.73,9.94-.06,5.37-6.42,7.73-12.38,7.83-10.4.16-16.44-2.81-21.24-5l-3.75,17.52c4.82,2.22,13.75,4.15,23,4.24,21.73,0,35.94-10.73,36-27.35.08-21.1-29.19-22.27-29-31.7.07-2.86,2.8-5.92,8.78-6.69a39,39,0,0,1,20.39,3.57L186.7,3.55A55.56,55.56,0,0,0,167.34,0C146.9,0,132.51,10.87,132.4,26.43m89.24-25a9.41,9.41,0,0,0-8.8,5.87l-31,74.09h21.71l4.32-11.94h26.53l2.51,11.94H256l-16.7-80H221.64m3,21.6,6.27,30H213.78l10.89-30M106.08,1.46,89,81.42h20.69l17.1-80H106.08m-30.61,0L53.94,55.89,45.23,9.61a9.64,9.64,0,0,0-9.54-8.15H.49L0,3.78c7.23,1.57,15.44,4.1,20.41,6.81,3,1.65,3.91,3.09,4.91,7l16.5,63.81H63.68l33.52-80H75.47"/></svg>